STARTFONT 2.1
COMMENT $Header: courR24.bdf,v 1.2 96/01/23 22:23:33 peterlin Exp $
COMMENT 
COMMENT Copyright International Business Machines,Corp. 1991
COMMENT IBM Courier is a Trademark of the IBM Corporation.
COMMENT 
COMMENT Automatic rendering from Adobe Type 1 outline:
COMMENT Primoz Peterlin <primoz.peterlin@biofiz.mf.uni-lj.si>
COMMENT cour.pfa rendered at 24.000000 points
COMMENT Checksum eb69a063
FONT -ibm-courier-medium-r-normal--24-240-75-75-m-109-iso8859-2
SIZE 24 75 75
FONTBOUNDINGBOX 18 23 -1 -3
STARTPROPERTIES 3
FONT_ASCENT 19
FONT_DESCENT 3
DEFAULT_CHAR 32
ENDPROPERTIES
CHARS 191
STARTCHAR space
ENCODING 32
SWIDTH 596 0
DWIDTH 15 0
BBX 0 0 0 1
BITMAP
ENDCHAR
STARTCHAR exclam
ENCODING 33
SWIDTH 596 0
DWIDTH 15 0
BBX 3 14 6 1
BITMAP
40
e0
e0
e0
e0
40
40
40
40
00
00
40
e0
40
ENDCHAR
STARTCHAR quotedbl
ENCODING 34
SWIDTH 596 0
DWIDTH 15 0
BBX 7 7 4 8
BITMAP
c6
c6
c6
c6
84
84
84
ENDCHAR
STARTCHAR numbersign
ENCODING 35
SWIDTH 596 0
DWIDTH 15 0
BBX 11 17 2 0
BITMAP
1080
1080
1080
1080
1080
ffe0
1100
1100
1100
1100
1100
ffe0
2100
2100
2100
2100
2100
ENDCHAR
STARTCHAR dollar
ENCODING 36
SWIDTH 596 0
DWIDTH 15 0
BBX 10 19 2 -2
BITMAP
0400
0400
1f40
24c0
4440
4440
4400
2400
1c00
0700
04c0
4440
4440
6440
5480
5f00
0400
0400
0400
ENDCHAR
STARTCHAR percent
ENCODING 37
SWIDTH 596 0
DWIDTH 15 0
BBX 12 15 1 1
BITMAP
3800
4400
8200
8200
4400
3860
0180
0600
1800
61c0
0220
0410
0410
0220
01c0
ENDCHAR
STARTCHAR ampersand
ENCODING 38
SWIDTH 596 0
DWIDTH 15 0
BBX 10 13 3 1
BITMAP
1d00
2600
4000
4000
2000
1000
3800
4480
8500
8200
8200
4500
38c0
ENDCHAR
STARTCHAR quoteright
ENCODING 39
SWIDTH 596 0
DWIDTH 15 0
BBX 5 6 5 9
BITMAP
30
70
60
60
c0
c0
ENDCHAR
STARTCHAR parenleft
ENCODING 40
SWIDTH 596 0
DWIDTH 15 0
BBX 5 19 7 -2
BITMAP
10
20
20
40
40
40
80
80
80
80
80
80
80
40
40
40
20
20
10
ENDCHAR
STARTCHAR parenright
ENCODING 41
SWIDTH 596 0
DWIDTH 15 0
BBX 5 19 3 -2
BITMAP
40
20
20
10
10
10
08
08
08
08
08
08
08
10
10
10
20
20
40
ENDCHAR
STARTCHAR asterisk
ENCODING 42
SWIDTH 596 0
DWIDTH 15 0
BBX 9 9 3 6
BITMAP
0800
0800
0800
c980
7f00
1c00
3600
6300
c180
ENDCHAR
STARTCHAR plus
ENCODING 43
SWIDTH 596 0
DWIDTH 15 0
BBX 11 11 2 3
BITMAP
0400
0400
0400
0400
0400
ffe0
0400
0400
0400
0400
0400
ENDCHAR
STARTCHAR comma
ENCODING 44
SWIDTH 596 0
DWIDTH 15 0
BBX 4 6 5 -2
BITMAP
30
60
60
60
c0
c0
ENDCHAR
STARTCHAR minus
ENCODING 45
SWIDTH 596 0
DWIDTH 15 0
BBX 12 1 1 8
BITMAP
fff0
ENDCHAR
STARTCHAR period
ENCODING 46
SWIDTH 596 0
DWIDTH 15 0
BBX 4 3 5 1
BITMAP
e0
e0
e0
ENDCHAR
STARTCHAR slash
ENCODING 47
SWIDTH 596 0
DWIDTH 15 0
BBX 10 21 2 -2
BITMAP
0000
0040
0040
0080
0080
0100
0100
0200
0200
0400
0400
0800
0800
1000
1000
2000
2000
4000
4000
8000
8000
ENDCHAR
STARTCHAR zero
ENCODING 48
SWIDTH 596 0
DWIDTH 15 0
BBX 9 15 3 1
BITMAP
1c00
6300
4100
8080
8080
8080
8080
8080
8080
8080
8080
8080
4100
6300
1c00
ENDCHAR
STARTCHAR one
ENCODING 49
SWIDTH 596 0
DWIDTH 15 0
BBX 10 15 3 1
BITMAP
1800
6800
8800
0800
0800
0800
0800
0800
0800
0800
0800
0800
0800
0800
ffc0
ENDCHAR
STARTCHAR two
ENCODING 50
SWIDTH 596 0
DWIDTH 15 0
BBX 10 15 2 1
BITMAP
1f00
2080
4040
4040
0040
0040
0080
0100
0200
0400
0800
1040
2040
4040
ffc0
ENDCHAR
STARTCHAR three
ENCODING 51
SWIDTH 596 0
DWIDTH 15 0
BBX 11 15 2 1
BITMAP
3e00
4100
0080
0080
0080
0100
0e00
0100
0080
0040
0040
0040
0040
c180
3e00
ENDCHAR
STARTCHAR four
ENCODING 52
SWIDTH 596 0
DWIDTH 15 0
BBX 10 15 2 1
BITMAP
0300
0500
0500
0900
1100
1100
2100
4100
4100
8100
ffc0
0100
0100
0100
1fc0
ENDCHAR
STARTCHAR five
ENCODING 53
SWIDTH 596 0
DWIDTH 15 0
BBX 10 15 2 1
BITMAP
7f80
4000
4000
4000
4000
5e00
6180
4080
0040
0040
0040
0040
0080
c180
3e00
ENDCHAR
STARTCHAR six
ENCODING 54
SWIDTH 596 0
DWIDTH 15 0
BBX 9 15 3 1
BITMAP
0780
1800
2000
4000
4000
8000
9e00
a100
c080
8080
8080
8080
4080
6100
1e00
ENDCHAR
STARTCHAR seven
ENCODING 55
SWIDTH 596 0
DWIDTH 15 0
BBX 10 15 2 1
BITMAP
ffc0
8040
8040
0080
0080
0080
0100
0100
0100
0200
0200
0200
0400
0400
0400
ENDCHAR
STARTCHAR eight
ENCODING 56
SWIDTH 596 0
DWIDTH 15 0
BBX 9 15 3 1
BITMAP
3e00
4100
8080
8080
8080
4100
2200
1c00
2200
4100
8080
8080
8080
4100
3e00
ENDCHAR
STARTCHAR nine
ENCODING 57
SWIDTH 596 0
DWIDTH 15 0
BBX 9 15 2 1
BITMAP
3c00
4300
8100
8080
8080
8080
8180
4280
3c80
0080
0100
0100
0200
0c00
f000
ENDCHAR
STARTCHAR colon
ENCODING 58
SWIDTH 596 0
DWIDTH 15 0
BBX 4 10 5 1
BITMAP
e0
e0
e0
00
00
00
00
e0
e0
e0
ENDCHAR
STARTCHAR semicolon
ENCODING 59
SWIDTH 596 0
DWIDTH 15 0
BBX 4 13 5 -2
BITMAP
70
70
70
00
00
00
00
70
70
70
60
c0
80
ENDCHAR
STARTCHAR less
ENCODING 60
SWIDTH 596 0
DWIDTH 15 0
BBX 12 11 1 3
BITMAP
0030
00c0
0300
0c00
3000
c000
3000
0c00
0300
00c0
0030
ENDCHAR
STARTCHAR equal
ENCODING 61
SWIDTH 596 0
DWIDTH 15 0
BBX 12 5 1 6
BITMAP
fff0
0000
0000
0000
fff0
ENDCHAR
STARTCHAR greater
ENCODING 62
SWIDTH 596 0
DWIDTH 15 0
BBX 12 11 1 3
BITMAP
c000
3000
0c00
0300
00c0
0030
00c0
0300
0c00
3000
c000
ENDCHAR
STARTCHAR question
ENCODING 63
SWIDTH 596 0
DWIDTH 15 0
BBX 9 14 3 1
BITMAP
7c00
8300
8080
0080
0080
0080
0300
1c00
1000
1000
0000
3800
3800
3800
ENDCHAR
STARTCHAR at
ENCODING 64
SWIDTH 596 0
DWIDTH 15 0
BBX 13 14 1 1
BITMAP
0f80
3060
4010
4010
8748
8888
8888
9088
9188
9290
4ee0
4000
3030
0fc0
ENDCHAR
STARTCHAR A
ENCODING 65
SWIDTH 596 0
DWIDTH 15 0
BBX 15 14 0 1
BITMAP
1f00
0280
0280
0440
0440
0820
0820
0820
1ff0
1010
2008
2008
2008
f83e
ENDCHAR
STARTCHAR B
ENCODING 66
SWIDTH 596 0
DWIDTH 15 0
BBX 12 14 1 1
BITMAP
ffc0
2020
2010
2010
2010
2020
3fc0
2020
2010
2010
2010
2010
2020
ffc0
ENDCHAR
STARTCHAR C
ENCODING 67
SWIDTH 596 0
DWIDTH 15 0
BBX 13 14 2 1
BITMAP
0fa0
3060
4020
4020
8020
8000
8000
8000
8000
8000
4000
4018
3060
0f80
ENDCHAR
STARTCHAR D
ENCODING 68
SWIDTH 596 0
DWIDTH 15 0
BBX 13 14 1 1
BITMAP
ff80
2060
2010
2010
2008
2008
2008
2008
2008
2008
2010
2010
2060
ff80
ENDCHAR
STARTCHAR E
ENCODING 69
SWIDTH 596 0
DWIDTH 15 0
BBX 12 14 1 1
BITMAP
fff0
1010
1010
1010
1090
1080
1f80
1080
1080
1010
1010
1010
1010
fff0
ENDCHAR
STARTCHAR F
ENCODING 70
SWIDTH 596 0
DWIDTH 15 0
BBX 12 14 2 1
BITMAP
ffe0
2020
2020
2020
2100
2100
3f00
2100
2100
2000
2000
2000
2000
fc00
ENDCHAR
STARTCHAR G
ENCODING 71
SWIDTH 596 0
DWIDTH 15 0
BBX 13 14 1 1
BITMAP
0fd0
3030
4010
4010
8010
8000
8000
8000
81f8
8010
4010
4010
3030
0fc0
ENDCHAR
STARTCHAR H
ENCODING 72
SWIDTH 596 0
DWIDTH 15 0
BBX 13 14 1 1
BITMAP
f8f8
2020
2020
2020
2020
2020
3fe0
2020
2020
2020
2020
2020
2020
f8f8
ENDCHAR
STARTCHAR I
ENCODING 73
SWIDTH 596 0
DWIDTH 15 0
BBX 10 14 3 1
BITMAP
ff80
0800
0800
0800
0800
0800
0800
0800
0800
0800
0800
0800
0800
ff80
ENDCHAR
STARTCHAR J
ENCODING 74
SWIDTH 596 0
DWIDTH 15 0
BBX 13 14 1 1
BITMAP
0ff8
0040
0040
0040
0040
0040
0040
4040
4040
4040
4040
4040
2080
1f00
ENDCHAR
STARTCHAR K
ENCODING 75
SWIDTH 596 0
DWIDTH 15 0
BBX 13 14 2 1
BITMAP
f9f0
2040
2080
2100
2200
2400
2800
3400
2200
2100
2080
2080
2040
f878
ENDCHAR
STARTCHAR L
ENCODING 76
SWIDTH 596 0
DWIDTH 15 0
BBX 13 14 1 1
BITMAP
fe00
1000
1000
1000
1000
1000
1000
1000
1008
1008
1008
1008
1008
fff8
ENDCHAR
STARTCHAR M
ENCODING 77
SWIDTH 596 0
DWIDTH 15 0
BBX 15 14 0 1
BITMAP
f01e
2828
2828
2828
2448
2448
2448
2288
2288
2108
2008
2008
2008
f83e
ENDCHAR
STARTCHAR N
ENCODING 78
SWIDTH 596 0
DWIDTH 15 0
BBX 14 14 1 1
BITMAP
f0fc
2810
2810
2410
2410
2210
2210
2110
2110
2090
2090
2050
2050
fc30
ENDCHAR
STARTCHAR O
ENCODING 79
SWIDTH 596 0
DWIDTH 15 0
BBX 13 14 1 1
BITMAP
0f80
3060
4010
4010
8008
8008
8008
8008
8008
8008
4010
4010
3060
0f80
ENDCHAR
STARTCHAR P
ENCODING 80
SWIDTH 596 0
DWIDTH 15 0
BBX 11 14 2 1
BITMAP
ff80
2040
2020
2020
2020
2020
2040
3f80
2000
2000
2000
2000
2000
fe00
ENDCHAR
STARTCHAR Q
ENCODING 81
SWIDTH 596 0
DWIDTH 15 0
BBX 13 17 1 -2
BITMAP
0f80
3060
4010
4010
8008
8008
8008
8008
8008
8008
4010
4010
3060
0f80
0400
0f08
10f0
ENDCHAR
STARTCHAR R
ENCODING 82
SWIDTH 596 0
DWIDTH 15 0
BBX 13 14 1 1
BITMAP
ff80
2040
2020
2020
2020
2040
3f80
2200
2100
2080
2080
2040
2040
fc38
ENDCHAR
STARTCHAR S
ENCODING 83
SWIDTH 596 0
DWIDTH 15 0
BBX 10 14 3 1
BITMAP
3e80
4180
8080
8080
8080
4000
3800
0700
0080
0040
8040
8040
c080
bf00
ENDCHAR
STARTCHAR T
ENCODING 84
SWIDTH 596 0
DWIDTH 15 0
BBX 13 14 1 1
BITMAP
fff8
8208
8208
8208
8208
8208
0200
0200
0200
0200
0200
0200
0200
1fc0
ENDCHAR
STARTCHAR U
ENCODING 85
SWIDTH 596 0
DWIDTH 15 0
BBX 13 14 1 1
BITMAP
f8f8
2020
2020
2020
2020
2020
2020
2020
2020
2020
2020
2020
1040
0f80
ENDCHAR
STARTCHAR V
ENCODING 86
SWIDTH 596 0
DWIDTH 15 0
BBX 15 14 0 1
BITMAP
f83e
2008
2008
1010
1010
0820
0820
0440
0440
0440
0280
0280
0100
0100
ENDCHAR
STARTCHAR W
ENCODING 87
SWIDTH 596 0
DWIDTH 15 0
BBX 15 14 0 1
BITMAP
f83e
2008
2008
2108
2108
2288
2288
2448
2448
2828
2828
1830
1010
1010
ENDCHAR
STARTCHAR X
ENCODING 88
SWIDTH 596 0
DWIDTH 15 0
BBX 13 14 1 1
BITMAP
f8f8
2020
1040
0880
0500
0500
0200
0700
0880
0880
1040
2020
2020
f8f8
ENDCHAR
STARTCHAR Y
ENCODING 89
SWIDTH 596 0
DWIDTH 15 0
BBX 13 14 1 1
BITMAP
f8f8
2020
2020
1040
0880
0880
0500
0200
0200
0200
0200
0200
0200
1fc0
ENDCHAR
STARTCHAR Z
ENCODING 90
SWIDTH 596 0
DWIDTH 15 0
BBX 11 14 2 1
BITMAP
ffc0
8040
8080
8100
8100
0200
0400
0800
1000
1020
2020
4020
8020
ffe0
ENDCHAR
STARTCHAR bracketleft
ENCODING 91
SWIDTH 596 0
DWIDTH 15 0
BBX 4 18 8 -1
BITMAP
f0
80
80
80
80
80
80
80
80
80
80
80
80
80
80
80
80
f0
ENDCHAR
STARTCHAR backslash
ENCODING 92
SWIDTH 596 0
DWIDTH 15 0
BBX 10 21 3 -2
BITMAP
8000
8000
4000
4000
2000
2000
1000
1000
0800
0800
0400
0400
0200
0200
0100
0100
0080
0080
0040
0040
0000
ENDCHAR
STARTCHAR bracketright
ENCODING 93
SWIDTH 596 0
DWIDTH 15 0
BBX 4 18 3 -1
BITMAP
f0
10
10
10
10
10
10
10
10
10
10
10
10
10
10
10
10
f0
ENDCHAR
STARTCHAR asciicircum
ENCODING 94
SWIDTH 596 0
DWIDTH 15 0
BBX 11 10 2 5
BITMAP
0400
0400
0a00
0a00
1100
1100
2080
2080
4040
c060
ENDCHAR
STARTCHAR underscore
ENCODING 95
SWIDTH 596 0
DWIDTH 15 0
BBX 17 1 -1 -2
BITMAP
ffff80
ENDCHAR
STARTCHAR quoteleft
ENCODING 96
SWIDTH 596 0
DWIDTH 15 0
BBX 4 6 5 9
BITMAP
30
30
60
60
e0
c0
ENDCHAR
STARTCHAR a
ENCODING 97
SWIDTH 596 0
DWIDTH 15 0
BBX 12 11 2 1
BITMAP
1e00
6100
0080
0080
3f80
4080
8080
8080
8180
c280
3cf0
ENDCHAR
STARTCHAR b
ENCODING 98
SWIDTH 596 0
DWIDTH 15 0
BBX 13 15 0 1
BITMAP
f000
1000
1000
1000
13c0
1420
1810
1008
1008
1008
1008
1008
1810
1430
f3c0
ENDCHAR
STARTCHAR c
ENCODING 99
SWIDTH 596 0
DWIDTH 15 0
BBX 12 11 2 1
BITMAP
1fa0
2060
4020
8020
8000
8000
8000
8000
4020
2060
1f80
ENDCHAR
STARTCHAR d
ENCODING 100
SWIDTH 596 0
DWIDTH 15 0
BBX 14 15 1 1
BITMAP
00e0
0020
0020
0020
0f20
30a0
4060
8020
8020
8020
8020
8020
4060
20a0
1f3c
ENDCHAR
STARTCHAR e
ENCODING 101
SWIDTH 596 0
DWIDTH 15 0
BBX 12 11 2 1
BITMAP
1f00
2080
4040
8020
8020
ffe0
8000
8000
4020
2060
1f80
ENDCHAR
STARTCHAR f
ENCODING 102
SWIDTH 596 0
DWIDTH 15 0
BBX 11 15 2 1
BITMAP
07e0
0800
1000
1000
1000
ffc0
1000
1000
1000
1000
1000
1000
1000
1000
ffc0
ENDCHAR
STARTCHAR g
ENCODING 103
SWIDTH 596 0
DWIDTH 15 0
BBX 13 15 1 -3
BITMAP
1e38
21a0
4060
8060
8020
8020
8020
8060
4060
21a0
1e20
0020
0020
00c0
1f00
ENDCHAR
STARTCHAR h
ENCODING 104
SWIDTH 596 0
DWIDTH 15 0
BBX 13 15 1 1
BITMAP
e000
2000
2000
2000
2780
2840
3020
2020
2020
2020
2020
2020
2020
2020
f8f8
ENDCHAR
STARTCHAR i
ENCODING 105
SWIDTH 596 0
DWIDTH 15 0
BBX 9 16 3 1
BITMAP
0c00
0c00
0c00
0000
0000
f800
0800
0800
0800
0800
0800
0800
0800
0800
0800
ff80
ENDCHAR
STARTCHAR j
ENCODING 106
SWIDTH 596 0
DWIDTH 15 0
BBX 8 20 2 -3
BITMAP
03
03
03
00
00
ff
01
01
01
01
01
01
01
01
01
01
01
01
82
7c
ENDCHAR
STARTCHAR k
ENCODING 107
SWIDTH 596 0
DWIDTH 15 0
BBX 13 15 1 1
BITMAP
e000
2000
2000
2000
21f0
2080
2100
2200
2400
3e00
2100
2080
2040
2020
e0f8
ENDCHAR
STARTCHAR l
ENCODING 108
SWIDTH 596 0
DWIDTH 15 0
BBX 9 15 3 1
BITMAP
f800
0800
0800
0800
0800
0800
0800
0800
0800
0800
0800
0800
0800
0800
ff80
ENDCHAR
STARTCHAR m
ENCODING 109
SWIDTH 596 0
DWIDTH 15 0
BBX 15 11 0 1
BITMAP
ee70
3188
2108
2108
2108
2108
2108
2108
2108
2108
f9ce
ENDCHAR
STARTCHAR n
ENCODING 110
SWIDTH 596 0
DWIDTH 15 0
BBX 13 11 1 1
BITMAP
e780
3840
2020
2020
2020
2020
2020
2020
2020
2020
f8f8
ENDCHAR
STARTCHAR o
ENCODING 111
SWIDTH 596 0
DWIDTH 15 0
BBX 13 11 1 1
BITMAP
0f80
3060
4010
8008
8008
8008
8008
8008
4010
3060
0f80
ENDCHAR
STARTCHAR p
ENCODING 112
SWIDTH 596 0
DWIDTH 15 0
BBX 14 15 0 -3
BITMAP
f3e0
1410
1808
1004
1004
1004
1004
1004
1808
1430
13c0
1000
1000
1000
fe00
ENDCHAR
STARTCHAR q
ENCODING 113
SWIDTH 596 0
DWIDTH 15 0
BBX 14 15 1 -3
BITMAP
1f3c
20a0
4060
8020
8020
8020
8020
8020
4060
30a0
0f20
0020
0020
0020
01fc
ENDCHAR
STARTCHAR r
ENCODING 114
SWIDTH 596 0
DWIDTH 15 0
BBX 12 11 2 1
BITMAP
f1e0
1230
1400
1800
1000
1000
1000
1000
1000
1000
ff80
ENDCHAR
STARTCHAR s
ENCODING 115
SWIDTH 596 0
DWIDTH 15 0
BBX 10 11 2 1
BITMAP
1e40
2180
4080
4080
2000
1f00
0080
4040
4040
60c0
5f00
ENDCHAR
STARTCHAR t
ENCODING 116
SWIDTH 596 0
DWIDTH 15 0
BBX 10 14 3 1
BITMAP
4000
4000
4000
4000
ff80
4000
4000
4000
4000
4000
4000
4000
20c0
1f00
ENDCHAR
STARTCHAR u
ENCODING 117
SWIDTH 596 0
DWIDTH 15 0
BBX 13 11 1 1
BITMAP
e1e0
2020
2020
2020
2020
2020
2020
2020
2060
10a0
0f38
ENDCHAR
STARTCHAR v
ENCODING 118
SWIDTH 596 0
DWIDTH 15 0
BBX 13 11 1 1
BITMAP
f8f8
2020
2020
1040
1040
0880
0880
0500
0500
0200
0200
ENDCHAR
STARTCHAR w
ENCODING 119
SWIDTH 596 0
DWIDTH 15 0
BBX 15 11 0 1
BITMAP
f01e
4004
4104
2108
2288
2288
1450
1450
1450
0820
0820
ENDCHAR
STARTCHAR x
ENCODING 120
SWIDTH 596 0
DWIDTH 15 0
BBX 13 11 1 1
BITMAP
f8f8
2020
1040
0880
0500
0200
0500
0880
1040
2020
f8f8
ENDCHAR
STARTCHAR y
ENCODING 121
SWIDTH 596 0
DWIDTH 15 0
BBX 15 15 0 -3
BITMAP
f83e
2008
2008
1010
0820
0820
0440
0280
0280
0100
0100
0200
0400
0400
ff80
ENDCHAR
STARTCHAR z
ENCODING 122
SWIDTH 596 0
DWIDTH 15 0
BBX 9 11 3 1
BITMAP
ff80
8080
8100
8200
0400
0800
1000
2000
4080
8080
ff80
ENDCHAR
STARTCHAR braceleft
ENCODING 123
SWIDTH 596 0
DWIDTH 15 0
BBX 6 18 6 -1
BITMAP
1c
20
20
20
20
20
20
20
c0
20
20
20
20
20
20
20
20
1c
ENDCHAR
STARTCHAR bar
ENCODING 124
SWIDTH 596 0
DWIDTH 15 0
BBX 1 21 7 -3
BITMAP
80
80
80
80
80
80
80
80
80
80
80
80
80
80
80
80
80
80
80
80
80
ENDCHAR
STARTCHAR braceright
ENCODING 125
SWIDTH 596 0
DWIDTH 15 0
BBX 6 18 3 -1
BITMAP
e0
10
10
10
10
10
10
10
0c
10
10
10
10
10
10
10
10
e0
ENDCHAR
STARTCHAR asciitilde
ENCODING 126
SWIDTH 596 0
DWIDTH 15 0
BBX 11 4 2 7
BITMAP
3800
4420
4220
01c0
ENDCHAR
STARTCHAR space
ENCODING 160
SWIDTH 596 0
DWIDTH 15 0
BBX 0 0 0 1
BITMAP
ENDCHAR
STARTCHAR Aogonek
ENCODING 161
SWIDTH 596 0
DWIDTH 15 0
BBX 15 17 0 -2
BITMAP
1f00
0280
0280
0440
0440
0440
0820
0820
1ff0
1010
1010
2008
2008
f83e
0008
000a
000c
ENDCHAR
STARTCHAR breve
ENCODING 162
SWIDTH 596 0
DWIDTH 15 0
BBX 8 2 3 14
BITMAP
c3
3c
ENDCHAR
STARTCHAR Lslash
ENCODING 163
SWIDTH 596 0
DWIDTH 15 0
BBX 13 14 1 1
BITMAP
fe00
1000
1000
1000
1100
1600
1800
3008
d008
1008
1008
1008
1018
fff8
ENDCHAR
STARTCHAR currency
ENCODING 164
SWIDTH 596 0
DWIDTH 15 0
BBX 11 11 2 3
BITMAP
8020
5f40
2080
4040
4040
4040
4040
4040
2080
5f40
8020
ENDCHAR
STARTCHAR Lcaron
ENCODING 165
SWIDTH 596 0
DWIDTH 15 0
BBX 13 15 1 1
BITMAP
0020
fe40
1080
1000
1000
1000
1000
1000
1000
1008
1008
1008
1008
1008
fff8
ENDCHAR
STARTCHAR Sacute
ENCODING 166
SWIDTH 596 0
DWIDTH 15 0
BBX 10 19 3 1
BITMAP
0400
0800
1000
0000
0000
3e80
4180
8080
8080
8080
4000
3800
0700
0080
0040
8040
8040
c080
bf00
ENDCHAR
STARTCHAR section
ENCODING 167
SWIDTH 596 0
DWIDTH 15 0
BBX 9 16 3 -1
BITMAP
1e00
2100
2100
2000
3000
4c00
8200
8100
4080
2080
1880
0700
0200
4200
4200
3c00
ENDCHAR
STARTCHAR dieresis
ENCODING 168
SWIDTH 596 0
DWIDTH 15 0
BBX 6 3 5 13
BITMAP
cc
cc
cc
ENDCHAR
STARTCHAR Scaron
ENCODING 169
SWIDTH 596 0
DWIDTH 15 0
BBX 10 19 3 1
BITMAP
4200
3400
1800
0000
0000
3e80
4180
8080
8080
8080
4000
3800
0700
0080
0040
8040
8040
c080
bf00
ENDCHAR
STARTCHAR Scedilla
ENCODING 170
SWIDTH 596 0
DWIDTH 15 0
BBX 11 18 3 -3
BITMAP
3e80
4180
8080
8080
8080
4000
3800
0700
0080
0040
8040
8040
c080
bf00
0800
0400
2200
3e00
ENDCHAR
STARTCHAR Tcaron
ENCODING 171
SWIDTH 596 0
DWIDTH 15 0
BBX 13 19 1 1
BITMAP
0880
0500
0200
0000
0000
fff8
8208
8208
8208
8208
8208
0200
0200
0200
0200
0200
0200
0200
1fc0
ENDCHAR
STARTCHAR Zacute
ENCODING 172
SWIDTH 596 0
DWIDTH 15 0
BBX 11 19 2 1
BITMAP
0200
0400
0800
0000
0000
ffc0
8040
8080
8100
8100
0200
0400
0800
1000
1020
2020
4020
8020
ffe0
ENDCHAR
STARTCHAR hyphen
ENCODING 173
SWIDTH 596 0
DWIDTH 15 0
BBX 5 1 5 8
BITMAP
f8
ENDCHAR
STARTCHAR Zcaron
ENCODING 174
SWIDTH 596 0
DWIDTH 15 0
BBX 11 19 2 1
BITMAP
1100
0a00
0400
0000
0000
ffc0
8040
8080
8100
8200
0200
0400
0800
1000
1020
2020
4020
8020
ffe0
ENDCHAR
STARTCHAR Zdotaccent
ENCODING 175
SWIDTH 596 0
DWIDTH 15 0
BBX 11 19 2 1
BITMAP
0000
0c00
0c00
0000
0000
ffc0
8040
8080
8100
8200
0200
0400
0800
1000
1020
2020
4020
8020
ffe0
ENDCHAR
STARTCHAR degree
ENCODING 176
SWIDTH 596 0
DWIDTH 15 0
BBX 7 7 4 9
BITMAP
38
44
82
82
82
44
38
ENDCHAR
STARTCHAR aogonek
ENCODING 177
SWIDTH 596 0
DWIDTH 15 0
BBX 12 14 2 -2
BITMAP
1e00
6180
0080
0080
3f80
4080
8080
8080
8180
c280
3cf0
0080
00a0
00c0
ENDCHAR
STARTCHAR ogonek
ENCODING 178
SWIDTH 596 0
DWIDTH 15 0
BBX 4 3 6 -2
BITMAP
40
90
e0
ENDCHAR
STARTCHAR lslash
ENCODING 179
SWIDTH 596 0
DWIDTH 15 0
BBX 9 15 3 1
BITMAP
f800
0800
0800
0800
0800
0980
0e00
3800
c800
0800
0800
0800
0800
0800
ff80
ENDCHAR
STARTCHAR acute
ENCODING 180
SWIDTH 596 0
DWIDTH 15 0
BBX 5 3 5 13
BITMAP
30
60
c0
ENDCHAR
STARTCHAR lcaron
ENCODING 181
SWIDTH 596 0
DWIDTH 15 0
BBX 11 15 3 1
BITMAP
f880
0900
0a00
0800
0800
0800
0800
0800
0800
0800
0800
0800
0800
0800
ff80
ENDCHAR
STARTCHAR sacute
ENCODING 182
SWIDTH 596 0
DWIDTH 15 0
BBX 10 15 2 1
BITMAP
0200
0400
0800
0000
1e40
2180
4080
4080
2000
1f00
4080
4040
4040
60c0
5f00
ENDCHAR
STARTCHAR caron
ENCODING 183
SWIDTH 596 0
DWIDTH 15 0
BBX 6 2 4 14
BITMAP
48
30
ENDCHAR
STARTCHAR cedilla
ENCODING 184
SWIDTH 596 0
DWIDTH 15 0
BBX 5 5 5 -3
BITMAP
20
30
08
88
70
ENDCHAR
STARTCHAR scaron
ENCODING 185
SWIDTH 596 0
DWIDTH 15 0
BBX 10 15 2 1
BITMAP
1200
0c00
0000
0000
1e40
2180
4080
4080
2000
1f00
4080
4040
4040
60c0
5f00
ENDCHAR
STARTCHAR scedilla
ENCODING 186
SWIDTH 596 0
DWIDTH 15 0
BBX 10 15 2 -3
BITMAP
1e40
2180
4080
4080
2000
1f00
4080
4040
4040
60c0
5f00
0400
0600
1100
0e00
ENDCHAR
STARTCHAR tcaron
ENCODING 187
SWIDTH 596 0
DWIDTH 15 0
BBX 10 15 3 1
BITMAP
0200
4400
4800
4000
4000
ff80
4000
4000
4000
4000
4000
4000
4000
20c0
1f00
ENDCHAR
STARTCHAR zacute
ENCODING 188
SWIDTH 596 0
DWIDTH 15 0
BBX 9 15 3 1
BITMAP
0400
0800
1000
0000
ff80
8080
8100
8200
0400
0800
1000
2000
4080
8080
ff80
ENDCHAR
STARTCHAR hungarumlaut
ENCODING 189
SWIDTH 596 0
DWIDTH 15 0
BBX 7 3 5 13
BITMAP
24
48
90
ENDCHAR
STARTCHAR zcaron
ENCODING 190
SWIDTH 596 0
DWIDTH 15 0
BBX 9 15 3 1
BITMAP
2200
1400
0800
0000
ff80
8080
8100
8200
0400
0800
1000
2000
4080
8080
ff80
ENDCHAR
STARTCHAR zdotaccent
ENCODING 191
SWIDTH 596 0
DWIDTH 15 0
BBX 9 15 3 1
BITMAP
0000
0c00
0c00
0000
ff80
8080
8100
8200
0400
0800
1000
2000
4080
8080
ff80
ENDCHAR
STARTCHAR Racute
ENCODING 192
SWIDTH 596 0
DWIDTH 15 0
BBX 13 19 1 1
BITMAP
0100
0200
0400
0000
0000
ff80
2040
2020
2020
2020
2040
3f80
2200
2100
2080
2080
2040
2040
fc38
ENDCHAR
STARTCHAR Aacute
ENCODING 193
SWIDTH 596 0
DWIDTH 15 0
BBX 15 19 0 1
BITMAP
0080
0100
0200
0000
0000
1f00
0280
0280
0440
0440
0440
0820
0820
1ff0
1010
1010
2008
2008
f83e
ENDCHAR
STARTCHAR Acircumflex
ENCODING 194
SWIDTH 596 0
DWIDTH 15 0
BBX 15 19 0 1
BITMAP
0300
0480
0840
0000
0000
1f00
0280
0280
0440
0440
0440
0820
0820
1ff0
1010
1010
2008
2008
f83e
ENDCHAR
STARTCHAR Abreve
ENCODING 195
SWIDTH 596 0
DWIDTH 15 0
BBX 15 19 0 1
BITMAP
1020
0840
0780
0000
0000
1f00
0280
0280
0440
0440
0440
0820
0820
1ff0
1010
1010
2008
2008
f83e
ENDCHAR
STARTCHAR Adieresis
ENCODING 196
SWIDTH 596 0
DWIDTH 15 0
BBX 15 19 0 1
BITMAP
0000
0660
0660
0000
0000
1f00
0280
0280
0440
0440
0440
0820
0820
1ff0
1010
1010
2008
2008
f83e
ENDCHAR
STARTCHAR Lacute
ENCODING 197
SWIDTH 596 0
DWIDTH 15 0
BBX 13 19 1 1
BITMAP
0400
0800
1000
0000
0000
fe00
1000
1000
1000
1000
1000
1000
1000
1008
1008
1008
1008
1008
fff8
ENDCHAR
STARTCHAR Cacute
ENCODING 198
SWIDTH 596 0
DWIDTH 15 0
BBX 13 19 2 1
BITMAP
0100
0200
0400
0000
0000
0fa0
3060
4020
4020
8020
8000
8000
8000
8000
8000
4000
4018
3060
0f80
ENDCHAR
STARTCHAR Ccedilla
ENCODING 199
SWIDTH 596 0
DWIDTH 15 0
BBX 13 18 2 -3
BITMAP
0fa0
3060
4020
4020
8020
8000
8000
8000
8000
8000
4000
4018
3060
0f80
0200
0300
0880
0700
ENDCHAR
STARTCHAR Ccaron
ENCODING 200
SWIDTH 596 0
DWIDTH 15 0
BBX 13 19 2 1
BITMAP
1080
0900
0600
0000
0000
0fa0
3060
4020
4020
8020
8000
8000
8000
8000
8000
4000
4018
3060
0f80
ENDCHAR
STARTCHAR Eacute
ENCODING 201
SWIDTH 596 0
DWIDTH 15 0
BBX 12 19 1 1
BITMAP
0100
0200
0400
0000
0000
fff0
1010
1010
1010
1090
1080
1f80
1080
1080
1010
1010
1010
1010
fff0
ENDCHAR
STARTCHAR Eogonek
ENCODING 202
SWIDTH 596 0
DWIDTH 15 0
BBX 12 17 1 -2
BITMAP
fff0
1010
1010
1010
1090
1080
1f80
1080
1080
1010
1010
1010
1010
fff0
0040
0090
00e0
ENDCHAR
STARTCHAR Edieresis
ENCODING 203
SWIDTH 596 0
DWIDTH 15 0
BBX 12 19 1 1
BITMAP
0000
0cc0
0cc0
0000
0000
fff0
1010
1010
1010
1090
1080
1f80
1080
1080
1010
1010
1010
1010
fff0
ENDCHAR
STARTCHAR Ecaron
ENCODING 204
SWIDTH 596 0
DWIDTH 15 0
BBX 12 19 1 1
BITMAP
1080
0900
0600
0000
0000
fff0
1010
1010
1010
1090
1080
1f80
1080
1080
1010
1010
1010
1010
fff0
ENDCHAR
STARTCHAR Iacute
ENCODING 205
SWIDTH 596 0
DWIDTH 15 0
BBX 10 19 3 1
BITMAP
0400
0800
1000
0000
0000
ff80
0800
0800
0800
0800
0800
0800
0800
0800
0800
0800
0800
0800
ff80
ENDCHAR
STARTCHAR Icircumflex
ENCODING 206
SWIDTH 596 0
DWIDTH 15 0
BBX 10 19 3 1
BITMAP
0800
1400
2200
0000
0000
ff80
0800
0800
0800
0800
0800
0800
0800
0800
0800
0800
0800
0800
ff80
ENDCHAR
STARTCHAR Dcaron
ENCODING 207
SWIDTH 596 0
DWIDTH 15 0
BBX 13 19 1 1
BITMAP
1080
0900
0600
0000
0000
ff80
2060
2010
2010
2010
2008
2008
2008
2008
2010
2010
2010
2060
ff80
ENDCHAR
STARTCHAR Eth
ENCODING 208
SWIDTH 596 0
DWIDTH 15 0
BBX 13 14 1 1
BITMAP
ff80
2060
2010
2010
2010
2008
fe08
2008
2008
2010
2010
2010
2060
ff80
ENDCHAR
STARTCHAR Nacute
ENCODING 209
SWIDTH 596 0
DWIDTH 15 0
BBX 14 19 1 1
BITMAP
0100
0200
0400
0000
0000
f0fc
3810
2810
2410
2410
2210
2210
2110
2110
2090
2090
2050
2050
fc30
ENDCHAR
STARTCHAR Ncaron
ENCODING 210
SWIDTH 596 0
DWIDTH 15 0
BBX 14 19 1 1
BITMAP
1080
0900
0600
0000
0000
f0fc
3810
2810
2410
2410
2210
2210
2110
2110
2090
2090
2050
2050
fc30
ENDCHAR
STARTCHAR Oacute
ENCODING 211
SWIDTH 596 0
DWIDTH 15 0
BBX 13 19 1 1
BITMAP
0100
0200
0400
0000
0000
0f80
3060
4010
4010
8008
8008
8008
8008
8008
8008
4010
4010
3060
0f80
ENDCHAR
STARTCHAR Ocircumflex
ENCODING 212
SWIDTH 596 0
DWIDTH 15 0
BBX 13 19 1 1
BITMAP
0200
0500
0880
0000
0000
0f80
3060
4010
4010
8008
8008
8008
8008
8008
8008
4010
4010
3060
0f80
ENDCHAR
STARTCHAR Ohungarumlaut
ENCODING 213
SWIDTH 596 0
DWIDTH 15 0
BBX 13 19 1 1
BITMAP
0240
0480
0900
0000
0000
0f80
3060
4010
4010
8008
8008
8008
8008
8008
8008
4010
4010
3060
0f80
ENDCHAR
STARTCHAR Odieresis
ENCODING 214
SWIDTH 596 0
DWIDTH 15 0
BBX 13 19 1 1
BITMAP
0000
0cc0
0cc0
0000
0000
0f80
3060
4010
4010
8008
8008
8008
8008
8008
8008
4010
4010
3060
0f80
ENDCHAR
STARTCHAR multiply
ENCODING 215
SWIDTH 596 0
DWIDTH 15 0
BBX 9 9 3 4
BITMAP
8080
4100
2200
1400
0800
1400
2200
4100
8080
ENDCHAR
STARTCHAR Rcaron
ENCODING 216
SWIDTH 596 0
DWIDTH 15 0
BBX 13 19 1 1
BITMAP
1080
0900
0600
0000
0000
ff80
2040
2020
2020
2020
2040
3f80
2200
2100
2080
2080
2040
2040
fc38
ENDCHAR
STARTCHAR Uring
ENCODING 217
SWIDTH 596 0
DWIDTH 15 0
BBX 13 19 1 1
BITMAP
0200
0500
0200
0000
0000
f8f8
2020
2020
2020
2020
2020
2020
2020
2020
2020
2020
2020
1040
0f80
ENDCHAR
STARTCHAR Uacute
ENCODING 218
SWIDTH 596 0
DWIDTH 15 0
BBX 13 19 1 1
BITMAP
0100
0200
0400
0000
0000
f8f8
2020
2020
2020
2020
2020
2020
2020
2020
2020
2020
2020
1040
0f80
ENDCHAR
STARTCHAR Uhungarumlaut
ENCODING 219
SWIDTH 596 0
DWIDTH 15 0
BBX 13 19 1 1
BITMAP
0240
0480
0900
0000
0000
f8f8
2020
2020
2020
2020
2020
2020
2020
2020
2020
2020
2020
1040
0f80
ENDCHAR
STARTCHAR Udieresis
ENCODING 220
SWIDTH 596 0
DWIDTH 15 0
BBX 13 19 1 1
BITMAP
0000
0cc0
0cc0
0000
0000
f8f8
2020
2020
2020
2020
2020
2020
2020
2020
2020
2020
2020
1040
0f80
ENDCHAR
STARTCHAR Yacute
ENCODING 221
SWIDTH 596 0
DWIDTH 15 0
BBX 13 19 1 1
BITMAP
0100
0200
0400
0000
0000
f8f8
2020
2020
1040
1040
0880
0500
0200
0200
0200
0200
0200
0200
1fc0
ENDCHAR
STARTCHAR Tcedilla
ENCODING 222
SWIDTH 596 0
DWIDTH 15 0
BBX 13 18 1 -3
BITMAP
fff8
8208
8208
8208
8208
8208
0200
0200
0200
0200
0200
0200
0200
1fc0
0200
0300
0900
0600
ENDCHAR
STARTCHAR germandbls
ENCODING 223
SWIDTH 596 0
DWIDTH 15 0
BBX 11 15 2 1
BITMAP
0e00
1100
2080
2080
2080
2100
2e00
2180
2040
2020
2020
2020
2020
2840
e780
ENDCHAR
STARTCHAR racute
ENCODING 224
SWIDTH 596 0
DWIDTH 15 0
BBX 12 15 2 1
BITMAP
0200
0400
0800
0000
f1e0
1230
1400
1800
1000
1000
1000
1000
1000
1000
ff80
ENDCHAR
STARTCHAR aacute
ENCODING 225
SWIDTH 596 0
DWIDTH 15 0
BBX 12 15 2 1
BITMAP
0200
0400
0800
0000
1e00
6100
0080
0080
3f80
4080
8080
8080
8180
c280
3cf0
ENDCHAR
STARTCHAR acircumflex
ENCODING 226
SWIDTH 596 0
DWIDTH 15 0
BBX 12 15 2 1
BITMAP
0800
1400
2200
0000
1e00
6100
0080
0080
3f80
4080
8080
8080
8180
c280
3cf0
ENDCHAR
STARTCHAR abreve
ENCODING 227
SWIDTH 596 0
DWIDTH 15 0
BBX 12 15 2 1
BITMAP
6180
1e00
0000
0000
1e00
6100
0080
0080
3f80
4080
8080
8080
8180
c280
3cf0
ENDCHAR
STARTCHAR adieresis
ENCODING 228
SWIDTH 596 0
DWIDTH 15 0
BBX 12 15 2 1
BITMAP
0000
1b00
1b00
0000
1e00
6100
0080
0080
3f80
4080
8080
8080
8180
c280
3cf0
ENDCHAR
STARTCHAR lacute
ENCODING 229
SWIDTH 596 0
DWIDTH 15 0
BBX 9 19 3 1
BITMAP
0400
0800
1000
0000
f800
0800
0800
0800
0800
0800
0800
0800
0800
0800
0800
0800
0800
0800
ff80
ENDCHAR
STARTCHAR cacute
ENCODING 230
SWIDTH 596 0
DWIDTH 15 0
BBX 12 15 2 1
BITMAP
0100
0200
0400
0000
1fa0
2060
4020
8020
8000
8000
8000
8000
4020
2060
1f80
ENDCHAR
STARTCHAR ccedilla
ENCODING 231
SWIDTH 596 0
DWIDTH 15 0
BBX 12 15 2 -3
BITMAP
1fa0
2060
4020
8020
8000
8000
8000
8000
4020
2060
1f80
0400
0200
1200
0c00
ENDCHAR
STARTCHAR ccaron
ENCODING 232
SWIDTH 596 0
DWIDTH 15 0
BBX 12 15 2 1
BITMAP
0880
0500
0200
0000
1fa0
2060
4020
8020
8000
8000
8000
8000
4020
2060
1f80
ENDCHAR
STARTCHAR eacute
ENCODING 233
SWIDTH 596 0
DWIDTH 15 0
BBX 12 15 2 1
BITMAP
0200
0400
0800
0000
1f00
2080
4040
8020
8020
ffe0
8000
8000
4000
2060
1f80
ENDCHAR
STARTCHAR eogonek
ENCODING 234
SWIDTH 596 0
DWIDTH 15 0
BBX 12 14 2 -2
BITMAP
1f00
2080
4040
8020
8020
ffe0
8000
8000
4000
2060
1f80
0200
0480
0700
ENDCHAR
STARTCHAR edieresis
ENCODING 235
SWIDTH 596 0
DWIDTH 15 0
BBX 12 15 2 1
BITMAP
0000
1980
1980
0000
1f00
2080
4040
8020
8020
ffe0
8000
8000
4000
2060
1f80
ENDCHAR
STARTCHAR ecaron
ENCODING 236
SWIDTH 596 0
DWIDTH 15 0
BBX 12 15 2 1
BITMAP
1100
0a00
0400
0000
1f00
2080
4040
8020
8020
ffe0
8000
8000
4000
2060
1f80
ENDCHAR
STARTCHAR iacute
ENCODING 237
SWIDTH 596 0
DWIDTH 15 0
BBX 9 15 3 1
BITMAP
0400
0800
1000
0000
f800
0800
0800
0800
0800
0800
0800
0800
0800
0800
ff80
ENDCHAR
STARTCHAR icircumflex
ENCODING 238
SWIDTH 596 0
DWIDTH 15 0
BBX 9 15 3 1
BITMAP
0800
1400
2200
0000
f800
0800
0800
0800
0800
0800
0800
0800
0800
0800
ff80
ENDCHAR
STARTCHAR dcaron
ENCODING 239
SWIDTH 596 0
DWIDTH 15 0
BBX 16 15 1 1
BITMAP
00e2
0024
0028
0020
0f20
30a0
4060
8020
8020
8020
8020
8020
4060
20a0
1f3c
ENDCHAR
STARTCHAR dbar
ENCODING 240
SWIDTH 596 0
DWIDTH 15 0
BBX 14 15 1 1
BITMAP
00e0
0020
07fc
0020
0f20
30a0
4060
8020
8020
8020
8020
8020
4060
20a0
1f3c
ENDCHAR
STARTCHAR nacute
ENCODING 241
SWIDTH 596 0
DWIDTH 15 0
BBX 13 15 1 1
BITMAP
0100
0200
0400
0000
e780
2840
3020
2020
2020
2020
2020
2020
2020
2020
f8f8
ENDCHAR
STARTCHAR ncaron
ENCODING 242
SWIDTH 596 0
DWIDTH 15 0
BBX 13 15 1 1
BITMAP
0880
0500
0200
0000
e780
2840
3020
2020
2020
2020
2020
2020
2020
2020
f8f8
ENDCHAR
STARTCHAR oacute
ENCODING 243
SWIDTH 596 0
DWIDTH 15 0
BBX 13 15 1 1
BITMAP
0100
0200
0400
0000
0f80
3060
4010
8008
8008
8008
8008
8008
4010
3060
0f80
ENDCHAR
STARTCHAR ocircumflex
ENCODING 244
SWIDTH 596 0
DWIDTH 15 0
BBX 13 15 1 1
BITMAP
0200
0500
0880
0000
0f80
3060
4010
8008
8008
8008
8008
8008
4010
3060
0f80
ENDCHAR
STARTCHAR ohungarumlaut
ENCODING 245
SWIDTH 596 0
DWIDTH 15 0
BBX 13 15 1 1
BITMAP
0240
0480
0900
0000
0f80
3060
4010
8008
8008
8008
8008
8008
4010
3060
0f80
ENDCHAR
STARTCHAR odieresis
ENCODING 246
SWIDTH 596 0
DWIDTH 15 0
BBX 13 15 1 1
BITMAP
0000
0cc0
0cc0
0000
0f80
3060
4010
8008
8008
8008
8008
8008
4010
3060
0f80
ENDCHAR
STARTCHAR divide
ENCODING 247
SWIDTH 596 0
DWIDTH 15 0
BBX 11 11 2 3
BITMAP
0c00
0c00
0000
0000
0000
ffc0
0000
0000
0000
0c00
0c00
ENDCHAR
STARTCHAR rcaron
ENCODING 248
SWIDTH 596 0
DWIDTH 15 0
BBX 12 15 2 1
BITMAP
1100
0a00
0400
0000
f1e0
1230
1400
1800
1000
1000
1000
1000
1000
1000
ff80
ENDCHAR
STARTCHAR uring
ENCODING 249
SWIDTH 596 0
DWIDTH 15 0
BBX 13 16 1 1
BITMAP
0200
0500
0500
0200
0000
e1e0
2020
2020
2020
2020
2020
2020
2020
2060
10a0
0f38
ENDCHAR
STARTCHAR uacute
ENCODING 250
SWIDTH 596 0
DWIDTH 15 0
BBX 13 15 1 1
BITMAP
0100
0200
0400
0000
e1e0
2020
2020
2020
2020
2020
2020
2020
2060
10a0
0f38
ENDCHAR
STARTCHAR uhungarumlaut
ENCODING 251
SWIDTH 596 0
DWIDTH 15 0
BBX 13 15 1 1
BITMAP
0240
0480
0900
0000
e1e0
2020
2020
2020
2020
2020
2020
2020
2060
10a0
0f38
ENDCHAR
STARTCHAR udieresis
ENCODING 252
SWIDTH 596 0
DWIDTH 15 0
BBX 13 15 1 1
BITMAP
0000
0cc0
0cc0
0000
e1e0
2020
2020
2020
2020
2020
2020
2020
2060
10a0
0f38
ENDCHAR
STARTCHAR yacute
ENCODING 253
SWIDTH 596 0
DWIDTH 15 0
BBX 15 19 0 -3
BITMAP
0080
0100
0200
0000
f83e
2008
2008
1010
1020
0820
0440
0280
0280
0100
0100
0200
0400
0400
ff80
ENDCHAR
STARTCHAR tcedilla
ENCODING 254
SWIDTH 596 0
DWIDTH 15 0
BBX 10 18 3 -3
BITMAP
4000
4000
4000
4000
ff80
4000
4000
4000
4000
4000
4000
4000
20c0
1f00
0400
0400
1200
0c00
ENDCHAR
STARTCHAR dotaccent
ENCODING 255
SWIDTH 596 0
DWIDTH 15 0
BBX 1 3 7 13
BITMAP
80
80
80
ENDCHAR
ENDFONT
